<svg xmlns="http://www.w3.org/2000/svg" width="165.462" height="51.849" viewBox="0 0 165.462 51.849">
  <g id="Diptyque-logo" transform="translate(0)">
    <path id="Path_1" data-name="Path 1" d="M16.411,0C16.241,0,.051.051.051.051L.2.914l1.32.2c2.285.254,2.64.406,2.64.813v30.29c0,.406-.559.66-2.184.914l-1.828.2L0,34.2H17.038c11.259,0,17.29-8.732,17.29-17.414C34.327,8.564,27.933,0,16.411,0m-.906,33.047-3.014-.019V1.219h2.285c7.058,0,10.46,6.528,10.46,16.531,0,7.718-3.026,15.3-9.732,15.3m20.677.332.662-.051c1.474-.1,2.034-.254,2.034-.865V19.138c0-3.153-.407-3.56-2.136-4.068l-1.017-.254.051-.661L46.354,11.2l-.1,7.528H46.4c1.628-4.781,3.713-7.578,6.867-7.578a3.791,3.791,0,0,1,4.069,4.068,3.609,3.609,0,0,1-3.408,3.56c-2.237,0-3.356-1.525-3.916-3.153-1.424.356-2.645,2.085-3.764,5.747V32.463c0,.459.407.713,2.544.865l.915.051.153.865H36.03Zm35.3-14.393c.051-3.357-.661-6.663-3-6.663-1.984,0-3.713,2.34-4.069,6.714Zm-14.9,4.628A12.347,12.347,0,0,1,69.189,11.052c6,0,9.1,3.814,9.1,7.629a7.453,7.453,0,0,1-.152,1.526s-11.749-.153-13.733-.254c-.05.457-.05,1.272-.05,1.729.05,5.34,2.8,9.053,7.273,9.053a6.782,6.782,0,0,0,6.256-3.917l.61.305c-1.78,5.086-5.34,7.935-10.934,7.935-6.205,0-10.986-4.781-10.986-11.444Zm36.109,5.34.305-7.171c-4.679,1.272-6.1,3-6.1,5.442,0,2.034,1.119,3.306,2.95,3.306a3.939,3.939,0,0,0,2.848-1.577m.255,1.119-.152-.051c-2.391,2.8-4.526,4.832-7.374,4.832a5.359,5.359,0,0,1-5.544-5.188c0-3.967,3.611-6.357,13.071-8.9l.051-1.424c.153-3.458-1.729-6.154-5.137-6.154-1.882,0-2.7.508-2.7,1.017,0,.356,1.627,1.679,1.627,3.154a3.213,3.213,0,0,1-3.408,3c-1.831,0-3.357-.967-3.357-2.747,0-3.764,7.07-6.459,12.156-6.459,5.849,0,8.391,2.492,8.188,8.29l-.407,8.952c-.1,1.983.661,2.746,1.78,2.746.712,0,1.526-.814,2.187-1.577l.509.559c-1.475,1.882-4.069,4.78-6.816,4.78-2.492,0-4.323-1.678-4.679-4.831" fill="#31295c" fill-rule="evenodd"/>
    <path id="Path_2" data-name="Path 2" d="M104.178,33.379l.712-.051c1.475-.1,2.034-.254,2.034-.865V19.138c0-3.153-.406-3.56-2.136-4.068l-1.017-.254.051-.661L114.4,11.2l-.1,4.425h.1c2.441-2.238,5.493-4.475,8.6-4.475a5.66,5.66,0,0,1,5.594,4.526l.254.05c2.544-2.441,5.6-4.577,8.8-4.577a5.664,5.664,0,0,1,4.171,1.831c1.22,1.22,1.729,3.56,1.729,7.426V32.463c0,.356.1.561,2.441.865l.56.051.152.865H133.524l.152-.865.864-.051c1.679-.1,1.629-.458,1.629-.865V20.613c0-3.814-1.577-4.831-4.07-4.831-1.372,0-2.746.508-3.153,1.322V32.564c0,.407.2.509,2.086.764l.66.051.153.865H118.876l.153-.865.865-.051c1.474-.1,1.678-.458,1.678-.865V20.613c0-3.814-1.627-4.831-4.12-4.831a6.581,6.581,0,0,0-3.153.915V32.514c0,.458.153.662,2.035.814l.711.051.153.865H104.025Z" fill="#31295c" fill-rule="evenodd"/>
    <g id="Group_2" data-name="Group 2" transform="translate(146.877 11.1)">
      <path id="Path_3" data-name="Path 3" d="M.428,22.481l-.153-6.51,1.425.1,1.373,2.848c1.729,2.543,3.1,3.865,5.747,3.865,2.544,0,4.018-1.425,4.018-3.611,0-2.39-2.594-3.306-5.442-4.425C3.53,13.276.376,11.7.376,7.529.376,3,4.038.1,9.531.1A18.311,18.311,0,0,1,14.82.917L17.312.459l.255,7.223-1.323.05-3.865-5.7a5.567,5.567,0,0,0-2.9-.813c-2.187,0-3.56,1.271-3.56,3.356,0,2.289,2.34,3.153,5.391,4.323,3.509,1.424,7.273,2.9,7.273,7.374,0,3.968-3.1,7.578-9.918,7.578A23.564,23.564,0,0,1,.428,22.481" fill="#31295c" fill-rule="evenodd"/>
    </g>
    <g id="Group_3" data-name="Group 3" transform="translate(0 38.773)">
      <path id="Path_4" data-name="Path 4" d="M165.462,2.593a150.785,150.785,0,0,1-54.874,10.482c-24.8.049-44.645-5.09-63.878-7.486C18.4,2.855,8.915,4.829.394,6.7L.011,5.519A144.488,144.488,0,0,1,51.056.575C78.568,2.143,97.287,7.4,119.037,7.4c27.681-.057,37.633-3.158,45.882-6Z" fill="#f089b1" fill-rule="evenodd"/>
    </g>
  </g>
</svg>
