<?xml version="1.0" encoding="utf-8"?>
<!-- Generator: Adobe Illustrator 25.2.1, SVG Export Plug-In . SVG Version: 6.00 Build 0)  -->
<svg version="1.1" id="Layer_1" xmlns="http://www.w3.org/2000/svg" xmlns:xlink="http://www.w3.org/1999/xlink" x="0px" y="0px"
	 width="1914px" height="1290px" viewBox="0 0 1914 1290" style="enable-background:new 0 0 1914 1290;" xml:space="preserve">
<style type="text/css">
	.st0{fill:#CCB57F;}
	.st1{fill:#7E6A5E;}
	.st2{clip-path:url(#SVGID_2_);fill:#7E6A5E;}
	.st3{clip-path:url(#SVGID_4_);fill:#7E6A5E;}
	.st4{clip-path:url(#SVGID_6_);fill:#7E6A5E;}
</style>
<g>
	<path class="st0" d="M1003,576.6c20-12.8,37.5-25.4,52.2-37.5l-52.2-31.6V576.6L1003,576.6z"/>
	<path class="st0" d="M831.8,510.6c4.5,5.3,9.9,10.9,16,17l63.5-38.6h-43.9L831.8,510.6L831.8,510.6z"/>
	<path class="st0" d="M911.3,576.7v-69.2l-51.5,31.2C873.4,550.7,890.4,563.6,911.3,576.7"/>
	<path class="st0" d="M909.4,213.1c-51.2,7.1-84.1,24-97.5,32.1l97.5,59.1V213.1L909.4,213.1z"/>
	<polygon class="st0" points="909.4,322.8 807.7,261 807.7,287.8 865.5,322.8 909.4,322.8 	"/>
	<polygon class="st0" points="999.4,322.6 999.6,322.6 999.4,322.5 999.4,322.6 	"/>
	<path class="st0" d="M1232.4,276.7c-9,0.2-16.3-6.8-16.3-15.3c0-6.4,4.2-11.9,10.2-14.1c0.1,0,0.1,0,0.2-0.1
		c1.3-0.5,2.7-0.8,4.1-0.9c0.5-0.1,1-0.1,1.6-0.2c0.1,0,0.2,0,0.2,0c0.6,0,1.1,0.1,1.6,0.2c0.4,0,0.8,0,1.2,0.1
		c0.7,0.1,1.4,0.3,2.1,0.5c0.2,0.1,0.5,0.1,0.7,0.2c4,1.4,7.2,4.2,9,7.9c2-3.7,0.9-8.5-2.2-11.5c-5.8-5.8-13.2-8.2-20-9.1
		c-6.9-0.9-14.8-1.3-30.9,5.6c-10.3,4.4-19.3,12.8-25.6,19.2c0,0-0.1,0.1-0.1,0.1c-4.3,5-8.2,10.2-11.8,15.7
		c-1.1,1.7,0.9,3.7,2.7,2.7c2-1.2,4.7-2.4,8.1-3.6c3.4-1.2,8.1-1.8,13.2-0.4c4,0.9,8.8,4.4,10.7,7.8c-7-3.1-17.6-2.9-24.9,0.3
		c-7.3,3.2-15.7,10.6-20.7,18.2c-8.2,12.4-11.8,22.4-13.1,44.8c0,0.1,0,0.1,0,0.2c0.3,16.8,2.4,28,9.6,41.7
		c2.9,5.1,7.1,10.5,11.8,13.5c4.7,3.1,9.1,4.6,13.9,5.7c4.3,0.9,8.9,0.2,12.9-1.4c-2.2-2.2-3.6-5-3.6-8.1c0-6.6,6.1-12,13.6-12
		c7.5,0,13.6,5.4,13.6,12c0,1.7-0.4,3.7-1.2,5.9c-1.5,3.8-6.7,9.3-12,11.7c-4.3,2.1-13.1,4.5-22.8,2.1c-12.9-3.3-23.3-11.4-29.5-20
		c-8.2-10.7-12.8-28.4-13.4-37.4c-0.8-14.9-0.7-19.1,0-27.8c0-0.1,0-0.2,0-0.3c0.5-20.3,11.6-49.6,28.4-70.5
		c30.9-38.3,76.7-53.2,102.3-33.3c0,0,0,0,0.1,0c0.2,0.2,2,1.6,3.7,3.8c4.5,5.5,7.1,12.4,6.7,19.3c-0.1,7.3-5.5,14.5-10.4,18.8
		C1251.2,272.9,1240.9,276.5,1232.4,276.7 M1232.3,299.7c-2.1,8.9-14.3,13.5-27.1,10.2c-3.4-0.9-6.1-2.7-4.4-2.3
		c12.1,3.1,23.6-1.1,25.6-9.4c2-8.3-6.3-17.5-18.4-20.6c-2-0.5,1.1-1,4.9,0C1225.8,280.9,1234.5,290.7,1232.3,299.7 M1169.8,316.5
		c-3.6,8.6-7.1,19.1-5,40c1.3,12.8,9.6,43.2,9.6,43.2s-0.7,0.1-2.4-0.1c-1.7-0.2-2.1-0.4-2.1-0.4s-7-20.2-9.9-40.9
		c-3.7-26.6,2.5-39.1,5.6-45.1c4-7.8,7.9-10.4,15-13.2C1182,299.4,1173.2,308.4,1169.8,316.5 M1161.9,549.1
		c-8.6,7.4-18.7,13.5-29.9,16.7c-9.7,2.2-18.4,3.1-29.4,0.9c-7.2-1.4-12.7-4.7-17.7-9.3c-4-3.6-5.9-9.2-5.4-14
		c0.6-5.9,7.6-11.5,16.1-11.5c8.5,0,15.4,4.9,15.4,10.9c0,6-6.9,10.9-15.4,10.9c-1.8,0-3.5-0.3-5.2-0.7c1.3,1.5,2.8,2.9,4.7,3.9
		c8,4.5,17.8,6.8,27.1,5c12.8-1.9,24.7-7.5,34.4-15.4c8.5-7.2,16-15.5,21-25.1c6.5-12.3,9.5-23.7,9.8-37.3
		c0.6-32.4-9.8-62.1-9.8-62.1s1.1,0.2,2.9,0.4c1.8,0.2,2.8,0,2.8,0c6,19.6,9.1,41,8.8,61.3C1192.6,507.8,1180.5,532.5,1161.9,549.1
		 M957.2,639.1L957.2,639.1C957.2,639.1,957.2,639.1,957.2,639.1C957.1,639.1,957.1,639.1,957.2,639.1L957.2,639.1
		c-56.3-27.7-95.8-56.6-123.2-81.8c1.7-2.1,3-4.1,3.6-6.3c26.4,24.4,64.6,52.4,119.2,79.3v0c0,0,0,0,0,0l0,0v0
		c37.2-18.3,66.8-37.2,90.3-55.1c0.5-0.4,1.1-0.8,1.6-1.3c1.7-1.3,3.3-2.6,4.9-3.9c0.8-0.6,1.6-1.3,2.4-1.9c1.6-1.3,3.3-2.6,4.8-3.9
		c1.8-1.5,3.6-3,5.3-4.5c0.7-0.6,1.4-1.2,2.1-1.8c1.5-1.3,3.1-2.7,4.5-4c0.5-0.4,1-0.9,1.5-1.3c0.7-0.6,1.3-1.2,2-1.8
		c0.6,2.2,2,4.4,3.9,6.6C1052.8,582.5,1013.4,611.4,957.2,639.1 M811.6,566.7c-11,2.2-19.8,1.3-29.4-0.9
		c-11.2-3.2-21.4-9.3-29.9-16.7c-18.6-16.6-30.8-41.2-30.1-65.4c-0.3-20.4,2.8-41.7,8.8-61.3c0,0,1,0.2,2.8,0
		c1.8-0.2,2.9-0.4,2.9-0.4s-10.4,29.7-9.8,62.1c0.2,13.6,3.2,24.9,9.7,37.3c5,9.7,12.5,18,21,25.1c9.7,7.9,21.6,13.6,34.4,15.4
		c9.3,1.8,19.1-0.5,27.1-5c1.9-1,3.3-2.4,4.7-3.9c-1.6,0.4-3.3,0.7-5.2,0.7c-8.5,0-15.4-4.9-15.4-10.9c0-6,6.9-10.9,15.4-10.9
		c8.5,0,15.5,5.6,16.1,11.5c0.5,4.8-1.4,10.3-5.4,14C824.3,562,818.9,565.3,811.6,566.7 M711.1,402.3c-0.8-2.1-1.2-4.2-1.2-5.9
		c0-6.6,6.1-12,13.6-12c7.5,0,13.6,5.4,13.6,12c0,3.1-1.4,6-3.6,8.1c4,1.7,8.6,2.3,12.9,1.4c4.8-1.1,9.3-2.6,13.9-5.7
		c4.7-3.1,8.9-8.4,11.8-13.5c7.1-13.7,9.2-24.9,9.5-41.7c0-0.1,0-0.1,0-0.2c-1.3-22.4-4.9-32.4-13.1-44.8
		c-5.1-7.6-13.4-15-20.7-18.2c-7.3-3.2-17.9-3.4-24.9-0.3c1.9-3.3,6.7-6.8,10.7-7.8c5.1-1.3,9.9-0.7,13.2,0.4
		c3.4,1.2,6.1,2.4,8.1,3.6c1.8,1,3.8-1,2.7-2.7c-3.6-5.5-7.5-10.7-11.8-15.7c0,0-0.1-0.1-0.1-0.1c-6.3-6.4-15.3-14.8-25.6-19.2
		c-16.1-6.9-24-6.5-30.9-5.6c-6.9,0.9-14.2,3.3-20,9.1c-3,3-4.1,7.9-2.2,11.5c1.8-3.6,5-6.5,9-7.9c0.2-0.1,0.5-0.1,0.7-0.2
		c0.7-0.2,1.4-0.4,2.1-0.5c0.4-0.1,0.8-0.1,1.2-0.1c0.5-0.1,1.1-0.2,1.6-0.2c0.1,0,0.2,0,0.2,0c0.5,0,1.1,0.1,1.6,0.2
		c1.4,0.2,2.8,0.4,4.1,0.9c0.1,0,0.1,0,0.2,0.1c6,2.3,10.2,7.7,10.2,14.1c0,8.4-7.3,15.4-16.3,15.3c-8.5-0.1-18.8-3.7-23.7-8
		c-4.9-4.3-10.3-11.5-10.4-18.8c-0.4-6.9,2.2-13.8,6.7-19.3c1.8-2.3,3.5-3.7,3.7-3.8c0,0,0,0,0.1,0c25.6-19.9,71.4-5.1,102.3,33.3
		c16.8,20.9,27.8,50.2,28.4,70.5c0,0.1,0,0.2,0,0.3c0.6,8.7,0.8,12.9,0,27.8c-0.7,9-5.2,26.7-13.4,37.4c-6.2,8.6-16.6,16.7-29.5,20
		c-9.7,2.5-18.4,0-22.7-2.1C717.9,411.5,712.6,406.1,711.1,402.3 M749.3,356.5c2.2-20.8-1.4-31.4-5-40c-3.4-8.1-12.1-17.1-10.7-16.5
		c7.1,2.8,11,5.4,15,13.2c3.1,6.1,9.3,18.5,5.6,45.1c-2.9,20.7-9.9,40.9-9.9,40.9s-0.3,0.2-2.1,0.4c-1.7,0.2-2.4,0.1-2.4,0.1
		S747.9,369.3,749.3,356.5 M708.9,309.9c-12.8,3.3-24.9-1.3-27.1-10.2c-2.1-8.9,6.5-18.8,19.3-22.1c3.8-1,7-0.5,4.9,0
		c-12.2,3.1-20.4,12.3-18.4,20.6c2,8.3,13.5,12.5,25.6,9.4C715,307.2,712.3,309,708.9,309.9 M815,527.6c-1,0.1-2.6,0.2-4.4,0.7
		c-1.8,0.5-2.7,1.1-3.7,1.3c-22-25.6-29.8-43.4-29.8-43.4l0.1-85.3c0,0,2-2.1,3.7-4.5c1.7-2.4,3.5-5.8,3.5-5.8v92.9
		C784.5,483.5,791.9,501.4,815,527.6 M1129.6,483.5v-92.9c0,0,1.8,3.4,3.5,5.8c1.7,2.4,3.7,4.5,3.7,4.5l0.1,85.3
		c0,0-7.7,17.8-29.8,43.4c-1.1-0.5-1.4-0.7-3.9-1.4c-1.9-0.5-3.4-0.5-4.2-0.6C1122.2,501.4,1129.6,483.5,1129.6,483.5 M1117.5,478.1
		c0,0-29.7,71.9-160.3,136.3v0c0,0,0,0,0,0c0,0,0,0,0,0v0c-130.6-64.3-160.3-136.3-160.3-136.3V241c0,0,55.2-40.3,159.7-40.6v0
		c0.2,0,0.4,0,0.6,0c0.2,0,0.4,0,0.6,0v0c104.5,0.3,159.7,40.6,159.7,40.6V478.1L1117.5,478.1z M777.3,220.3
		c0,0,61.9-45.2,179.1-45.6v0c0.2,0,0.5,0,0.7,0c0.2,0,0.5,0,0.7,0v0c117.2,0.4,179.1,45.6,179.1,45.6v57c-2.7,5.2-5,10.1-6.7,14.3
		v-64.7c0,0-59.6-43.5-172.5-43.9v0c-0.2,0-0.5,0-0.7,0c-0.2,0-0.4,0-0.7,0v0C843.6,183.3,784,226.8,784,226.8v0
		c-0.2,0.1-0.3,0.2-0.3,0.2v64.7c-1.6-4-3.8-8.7-6.3-13.6V220.3L777.3,220.3z M1240.1,285c20.7-3.3,36.3-18.3,36.3-36.3
		c0-11.6-6.5-22-16.7-28.8c-28.1-20-75-6.5-106.2,31.2c-3.1,3.7-6.4,8.6-9.5,13.7v-50.4c0,0-64.3-46.9-186.1-47.3v0
		c-0.3,0-0.5,0-0.7,0c-0.2,0-0.5,0-0.7,0v0c-121.8,0.4-186.1,47.3-186.1,47.3v51.2c-3.2-5.4-6.6-10.4-9.8-14.2
		c-31.2-37.7-78-51.2-106.2-31.2c-10.2,6.8-16.7,17.2-16.7,28.8c0,18,15.6,33,36.3,36.3c0,0,0.1,0,0.1,0c0.4,0.1,0.8,0.3,1.3,0.5
		c-1.8,3.9-2.5,8.2-1.8,12.5c2.4,13.2,17.5,21.6,33.9,18.7c8.2-1.4,15.2-5.5,19.8-10.8c1.4,2,9.4,13.8,12,28
		c2.8,15.3,1.7,27.7-2.5,40.7c0,0,0,0,0,0c-4-2.1-8.7-3.3-13.7-3.3c-15.3,0-27.7,11.3-27.7,25.3c0,13,10.9,24.2,24.8,25.6
		c0,0.7-12.9,43.3-10.7,51.8c1.4,5.4,0.6,11.1-1.5,16.3c-4.3,10.4,0.3,20.4,1.7,29.8c1.1,7.3,2,14.8,0.6,22.3
		c-1.4,7.3-8,9.5-9.8,9.8c-14.6,2.1-12-11.3-7.1-11.1c1.5,0.1,2.4,2.9,5.7,1.6c1.8-0.7,2.1-4.5-1.1-5.6c-3.5-1.3-6.8-0.6-9.5,1.7
		c-4,3.5-2.7,11.9,1.9,14.4c7.5,4.2,17.3,1.6,23.1-4.1c1-0.9,2.5-0.9,3.4,0.1c0.4,0.5,0.9,1,1.3,1.5c0.6,0.7,1.5,1,2.3,0.8
		c0.9-0.2,1.8-0.4,2.6-0.5c0.9-0.1,1.9,0.3,2.2,1.1c2.7,7.7,5.3,15,5.2,22c0.2,6.6-2,12.5-7,17.5c-4.5,5.1-12.6,7.1-19.1,5.2
		c-16.2-4.6-13.9-23.5-1.7-27.4c7.4-2.6,17,4.3,11.3,10.1c-1.1,1.2-3.4,1.3-3.7,1.3c-1.3,0-1.9,0.7-1.9,1.4c0,0.8,0.5,1.3,1.9,1.4
		c1.3,0.1,2.8-0.3,4.1-0.9c9.7-3.2,3.4-22.5-14.6-17.5c-12.1,3.4-16.1,19.8-5.5,29.9c2.7,2.5,8.9,5.4,14,5.2
		c23-1,25.4-22.2,25.3-26.7c-0.6-9.4-4-18.3-7.6-27c-13.4-32.8-13.8-48.7-13.2-59.2c0-0.2,0.1-0.5,0.2-0.7c0.8-1,2.3-1.5,3.4-2.2
		c-0.2,7.5-0.7,15.1,1.2,22.4c7.7,29.8,18.4,51.4,20.4,57.5c0,0,0,0.1,0,0.1c2.7,6,9.6,20.8,12.3,33.8c1.1,5.3,0.7,10.7-4.5,16.3
		c-3.1,3.3-9.6,7.7-14.6,8.8c0.1,1.6,0.1,1.2,0.2,2.9c6.5-0.4,13.8-5,17.8-9c3.9-3.8,6.9-10.3,5.8-18.7c-1.2-8.6-7.7-22.8-7.7-22.8
		s6.4-2.5,4.8-13.8c-0.4-3.1-2.3-8.8-3.4-11.7c3.7,2.2,6.9,5.3,10.5,7.6c0.4,0.2,0.9,0.5,1.3,0.7c6.8,4.6,14.2,8.4,22.3,10.7
		c12.2,3,20.2,3,30.1,0.8c5.8-1.3,10.8-3.7,15.2-7.3c28.5,26.4,69.9,57,129.2,86.2v0c0,0,0,0,0,0c0,0,0,0,0.1,0v0
		c59.3-29.2,100.7-59.8,129.2-86.2c4.3,3.4,9.2,5.7,14.9,7c9.8,2.2,17.9,2.2,30.1-0.8c8-2.3,15.5-6.1,22.3-10.7
		c0.4-0.2,0.8-0.5,1.3-0.7c3.7-2.3,6.8-5.3,10.5-7.6c-1.1,2.9-3,8.6-3.4,11.7c-1.6,11.2,4.8,13.7,4.8,13.7s-6.6,14.2-7.7,22.8
		c-1.1,8.4,2,14.9,5.8,18.7c4,4,11.4,8.6,17.8,9c0.1-1.6,0.1-1.2,0.2-2.8c-5.1-1-11.6-5.5-14.6-8.8c-5.1-5.6-5.6-10.9-4.5-16.3
		c2.7-13,9.6-27.7,12.3-33.7c0,0,0-0.1,0-0.1c2-6,12.7-27.6,20.4-57.5c1.9-7.3,1.4-14.9,1.2-22.4c1.1,0.7,2.6,1.2,3.4,2.2
		c0.1,0.2,0.2,0.4,0.2,0.7c0.5,10.6,0.2,26.4-13.2,59.2c-3.6,8.7-7,17.6-7.6,27c-0.1,4.5,2.2,25.7,25.3,26.7c5,0.2,11.3-2.6,14-5.2
		c10.6-10.1,6.6-26.6-5.5-29.9c-18.1-5-24.3,14.2-14.6,17.5c1.4,0.5,2.8,1,4.1,0.9c1.4-0.1,1.9-0.6,1.9-1.4c0-0.8-0.6-1.4-1.9-1.4
		c-0.2,0-2.6-0.1-3.7-1.3c-5.7-5.9,3.9-12.8,11.3-10.1c12.2,4,14.5,22.9-1.7,27.4c-6.5,1.8-14.6-0.1-19.1-5.3
		c-4.9-5-7.2-10.9-7-17.5c-0.1-7.1,2.5-14.3,5.2-22c0.3-0.8,1.3-1.2,2.2-1.1c0.9,0.1,1.8,0.2,2.6,0.5c0.9,0.2,1.8-0.1,2.4-0.7
		c0.4-0.5,0.9-1,1.3-1.5c0.9-1,2.4-1.1,3.4-0.1c5.8,5.6,15.6,8.2,23.1,4c4.6-2.4,5.8-10.8,1.9-14.4c-2.7-2.3-5.9-3-9.5-1.7
		c-3.1,1.2-2.9,4.9-1.1,5.6c3.3,1.3,4.2-1.5,5.7-1.6c4.9-0.2,7.4,13.2-7.1,11.1c-1.8-0.3-8.4-2.5-9.8-9.8c-1.5-7.5-0.5-15,0.6-22.3
		c1.4-9.4,6-19.3,1.7-29.8c-2.1-5.2-2.9-10.9-1.5-16.3c2.1-8.5-10.7-51.2-10.7-51.8c13.9-1.4,24.8-12.6,24.8-25.6
		c0-14-12.4-25.3-27.7-25.3c-5,0-9.7,1.2-13.7,3.3c0,0,0,0,0,0c-4.2-13-5.3-25.5-2.5-40.7c2.6-14.2,10.6-26,12-28
		c4.6,5.3,11.5,9.4,19.8,10.8c16.3,2.9,31.5-5.5,33.9-18.7c0.8-4.3,0.1-8.6-1.8-12.5c0.4-0.2,0.9-0.3,1.2-0.5
		C1240,285,1240,285,1240.1,285"/>
	<polygon class="st0" points="873.4,390.1 880.5,390.1 876.9,382 873.4,390.1 	"/>
	<path class="st0" d="M1053.8,387.7c0-5-1.5-11.2-8.7-11.2h-4.7v17.5c0,4.3,0.6,5,4.3,5h0.5C1052.3,398.9,1053.8,392.6,1053.8,387.7
		"/>
	<path class="st0" d="M929,399.6c3.7,0,4.2-0.8,4.2-5.1v-13.6c0-4.4-0.5-5.1-4.2-5.1v-1.3h14.7c10.4,0,14.9,5.9,14.9,13.2
		c0,7.3-4.5,13.2-14.9,13.2H929V399.6L929,399.6z M959.4,415.7h14.2v1.3c-3.7,0-4.3,0.8-4.3,5.1v13.6c0,4.4,0.6,5.1,4.3,5.1v1.3
		h-14.2v-1.3c3.8,0,4.3-0.8,4.3-5.1V429h-13.7v6.6c0,4.4,0.6,5.1,4.3,5.1v1.3h-14.1v-1.3c3.7,0,4.2-0.8,4.2-5.1v-13.6
		c0-4.4-0.5-5.1-4.2-5.1v-1.3h14.1v1.3c-3.7,0-4.3,0.8-4.3,5.1v5h13.7v-5c0-4.4-0.5-5.1-4.3-5.1V415.7L959.4,415.7z M961.8,399.6
		c3.7,0,4.3-0.8,4.3-5.1v-13.6c0-4.4-0.5-5.1-4.3-5.1v-1.3h9l8.6,19.1l8.4-19.1h8.7v1.3c-3.8,0-4.3,0.8-4.3,5.1v13.6
		c0,4.4,0.5,5.1,4.3,5.1v1.3h-14v-1.3c3.7,0,4.3-0.8,4.3-5.1v-12.7l-8.8,19.9h-1l-9-19.9v12.7c0,4.4,0.6,5.1,4.3,5.1v1.3h-10.6
		V399.6L961.8,399.6z M997.3,399.6c3.1,0,4.1-0.8,5.5-3.9l9.7-22h0.9l9.7,22c1.2,2.8,1.9,3.9,5.5,3.9v1.3H1014v-1.3
		c3.9,0,4.4-1,3.4-3.3l-1.9-4.2h-8.9l-1.8,4.2c-1,2.4-0.4,3.3,3.4,3.3v1.3h-10.8V399.6L997.3,399.6z M1031.6,440.1
		c3.8,0,6.6-2.6,6.6-8.3v-9.7c0-4.4-0.5-5.1-4.3-5.1v-1.3h11v1.3c-3.7,0-4.3,0.8-4.3,5.1v10.2c0,6.9-4.9,10.6-10.8,10.6
		c-5.9,0-10.7-3.6-10.7-10.6v-10.2c0-4.4-0.6-5.1-4.3-5.1v-1.3h14.2v1.3c-3.8,0-4.3,0.8-4.3,5.1v9.7
		C1024.7,437.4,1027.8,440.1,1031.6,440.1 M1030.5,399.6c3.7,0,4.3-0.8,4.3-5.1v-13.6c0-4.4-0.5-5.1-4.3-5.1v-1.3h14.8
		c10.4,0,14.9,5.9,14.9,13.2c0,7.3-4.5,13.2-14.9,13.2h-14.8V399.6L1030.5,399.6z M1067.1,420.5c1.1-0.9,3.9-3.6,0.2-3.6v-1.3h10.8
		v1.3c-3.8,0-5.3,1.3-8.2,3.6l-6.4,5l12.4,12.6c1.5,1.5,4.6,2.6,5.8,2.6v1.3h-14.8v-1.3c2.3,0,3.4-0.8,1.6-2.6l-8.8-9.4l-1.9,1.5
		v5.3c0,4.4,0.6,5.1,4.3,5.1v1.3h-14.1v-1.3c3.7,0,4.3-0.8,4.3-5.1v-13.6c0-4.4-0.5-5.1-4.3-5.1v-1.3h14.1v1.3
		c-3.7,0-4.3,0.8-4.3,5.1v5.9L1067.1,420.5L1067.1,420.5z M1062.4,399.6c3.7,0,4.3-0.8,4.3-5.1v-13.6c0-4.4-0.5-5.1-4.3-5.1v-1.3h23
		l0.3,6.2h-1.3l-0.2-0.9c-0.6-2.3-1.1-3.3-5.2-3.3h-6.8v9.5h2.5c4.5,0,5.2-0.6,5.2-4.2h1.3v10.4h-1.3c0-3.7-0.7-4.2-5.2-4.2h-2.5
		v5.9c0,4.4,0.6,5.2,4.3,5.2h4c4.1,0,4.6-1,5.2-3.3l0.2-0.9h1.3l-0.4,6.2h-24.5V399.6L1062.4,399.6z M1001.4,442.1h-24.5v-1.3
		c3.7,0,4.2-0.8,4.2-5.1v-13.6c0-4.4-0.5-5.1-4.2-5.1v-1.3h23l0.4,6.2H999l-0.2-0.9c-0.6-2.3-1.1-3.3-5.2-3.3h-6.8v9.5h2.5
		c4.5,0,5.2-0.6,5.2-4.2h1.3v10.4h-1.3c0-3.7-0.7-4.2-5.2-4.2h-2.5v5.9c0,4.4,0.6,5.1,4.3,5.1h4c4.1,0,4.6-1,5.2-3.3l0.2-0.9h1.3
		L1001.4,442.1L1001.4,442.1z M935.8,421.9l-0.2-0.9c-0.6-2.3-1.1-3.3-5.2-3.3h-4.5v18c0,4.4,0.6,5.1,4.3,5.1v1.3h-14.1v-1.3
		c3.7,0,4.2-0.8,4.2-5.1v-18h-4.5c-4.1,0-4.6,1-5.1,3.3l-0.2,0.9h-1.3l0.4-6.2h27.2l0.4,6.2H935.8L935.8,421.9z M906,400.9h-10.5
		v-1.3c3.7,0,4.2-0.8,4.2-5.1v-13.6c0-4.4-0.5-5.1-4.2-5.1v-1.3h8.9l14.9,17.5v-11.1c0-4.4-0.6-5.1-4.3-5.1v-1.3h10.6v1.3
		c-3.8,0-4.3,0.8-4.3,5.1v20.7h-1.1l-18.5-21.7v14.6c0,4.4,0.6,5.1,4.3,5.1V400.9L906,400.9z M894.9,416.9c-3.7,0-4.3,0.8-4.3,5.1
		v20.7h-1.1L871,421.1v14.6c0,4.4,0.6,5.1,4.3,5.1v1.3h-10.6v-1.3c3.7,0,4.2-0.8,4.2-5.1v-13.6c0-4.4-0.5-5.1-4.2-5.1v-1.3h9
		l14.9,17.5v-11.1c0-4.4-0.6-5.1-4.3-5.1v-1.3h10.6V416.9L894.9,416.9z M863.2,399.6c3.1,0,4.1-0.8,5.5-3.9l9.7-22h0.9l9.7,22
		c1.3,2.8,1.9,3.9,5.5,3.9v1.3h-14.7v-1.3c3.9,0,4.4-1,3.4-3.3l-1.9-4.2h-8.9l-1.8,4.2c-1,2.4-0.4,3.3,3.4,3.3v1.3h-10.8V399.6
		L863.2,399.6z M860.6,375.7c-3.7,0-4.3,0.8-4.3,5.1v13.6c0,4.4,0.6,5.1,4.3,5.1v1.3h-14.2v-1.3c3.8,0,4.3-0.8,4.3-5.1v-6.6H837v6.6
		c0,4.4,0.6,5.1,4.3,5.1v1.3h-14.1v-1.3c3.7,0,4.3-0.8,4.3-5.1v-13.6c0-4.4-0.5-5.1-4.3-5.1v-1.3h14.1v1.3c-3.7,0-4.3,0.8-4.3,5.1v5
		h13.7v-5c0-4.4-0.5-5.1-4.3-5.1v-1.3h14.2V375.7L860.6,375.7z M860.4,416.9c-3.7,0-4.3,0.8-4.3,5.1v13.6c0,4.4,0.6,5.1,4.3,5.1v1.3
		h-14.1v-1.3c3.7,0,4.2-0.8,4.2-5.1v-13.6c0-4.4-0.5-5.1-4.2-5.1v-1.3h14.1V416.9L860.4,416.9z M928,339.7H807.7v133.8H928v113.2
		c9.5,5.5,19.7,10.9,30.7,16.3c9.6-5.3,18.8-10.7,27.6-16V473.5h123c0-28.4-0.3-84.7-0.6-133.8H986.3V210.9
		c-8.9-0.7-18.4-1.1-28.3-1.1c-10.5,0-20.5,0.5-30,1.3V339.7L928,339.7z"/>
	<path class="st0" d="M952.3,387.7c0-5-1.5-11.2-8.7-11.2h-4.7v17.5c0,4.3,0.6,5,4.3,5h0.4C950.8,398.9,952.3,392.6,952.3,387.7"/>
	<polygon class="st0" points="1007.5,390.1 1014.6,390.1 1011,382 1007.5,390.1 	"/>
	<path class="st0" d="M1108.4,286.7c-0.1-10.9-0.1-20.1-0.2-26.6L1005,322.8h43.9L1108.4,286.7L1108.4,286.7z"/>
	<path class="st0" d="M1003,489.1l64.8,39.3c6.3-5.6,12-11.1,17-16.4l-37.9-22.9H1003L1003,489.1z"/>
	<path class="st0" d="M1005,212.9v91.5l97.8-59.3C1090.7,237.4,1058.1,219.9,1005,212.9"/>
	<path class="st1" d="M503.8,807.3c-14.6-17.8-29.4-32.9-41.8-39.1c-5.7-2.7-22.1-5.1-43.2-5.1c-7.6,0-18.1,0.5-21.9,0.8
		c-1.1,4.3-1.9,7.6-2.4,20.8c-0.8,25.1-0.5,64-0.5,67.5c2.4,0,21.9,0,32.1-2.2c25.9-5.4,30-21.3,32.7-39.1h3.2v90.7h-3.2
		c-3-11.3-9.7-28.1-17.3-34.8c-6.8-5.9-14-8.9-24.6-9.7c-10.8-0.8-11.6-0.5-23-0.5c0,23.2,0,46.4,0.3,58.3c0.3,11.6,0.8,23,4.1,27.8
		c3.2,4.9,11.1,7.8,25.7,8.4v2.7H331V951c8.9-1.4,17.8-4.6,22.7-10.3c3.5-4.3,4.6-17.6,4.9-29.2c0.3-10,0.5-35.1,0.5-55.9V803
		c0-13-0.3-28.6-4.6-33.2c-5.4-5.7-11.3-6.5-21.1-7.8v-2.7h154.7l18.4,46.7L503.8,807.3L503.8,807.3z"/>
	<path class="st1" d="M710.3,953.7H533.7V951c8.9-1.4,19.4-4.6,24.3-10.3c3.5-4.3,4.9-17.6,5.1-29.2c0.3-10,0.5-35.9,0.5-55.9v-52.4
		c0-12.7,0-26.2-4.1-31c-5.1-5.9-14.6-9.2-24-10.3v-2.7h92.6v2.7c-9.7,1.3-28.3,4.3-28.9,23.8c-0.8,25.1-0.8,39.7-0.8,66.4
		c0,24.6,0,37.5,0.3,62.1c0.3,11.6,0.3,23.2,3.5,28.1c2.7,3.8,17.8,7.3,32.1,7.3c5.9,0,23.8-0.5,36.2-4c28.6-7.8,37.5-28.4,47-49.7
		l2.7,0.8L710.3,953.7L710.3,953.7z"/>
	<path class="st1" d="M833.6,793.3c-5.1,11.6-17.8,41.8-33.5,80.7h65.1C853.6,844,840.4,810.3,833.6,793.3L833.6,793.3z
		 M866.3,953.7V951c4.9-0.5,20.2-2.2,20.2-12.4c0-6.2-8.4-30.5-19.2-58.9h-69.7c-5.4,13.5-10.3,25.1-15.1,37.8
		c-3.8,9.7-5.7,17-5.7,20.5c0,9.5,13,11.9,22.4,13v2.7H741v-3c9.4-1.1,17.5-6.5,18.6-7.8c2.4-2.4,8.4-11.3,16.7-29.7
		c15.4-34,37.3-85.9,54.3-126.4l-3.5-7.8c13-5.1,23.8-16.7,28.6-23.5h2.2c11.1,30,48.1,128.8,56.7,151.7c4.1,11.1,7,17.3,11.3,26.5
		c1.6,3.2,9.4,16.2,25.9,16.7v3.2H866.3L866.3,953.7z"/>
	<path class="st1" d="M1119.5,796.8c-11.6,13.8-29.2,34.8-40,47.8c7.6,11.1,40.8,58.6,48.9,70.7c14.6,21.1,22.1,33.2,37.5,35.6v2.7
		h-93.7V951c10-1.1,25.1-3,25.1-13.2c0-5.1-5.4-14-11.6-23.5c-6.8-11.1-16.5-25.4-30.2-45.1c-11.6,13.5-27.5,33.2-36.2,44.8
		c-5.1,7.3-10,14.6-10,21.1c0,10,14.8,14.9,24.8,15.9v2.7h-72.4V951c15.1-3.8,31.1-16.2,47.2-34.3c10.3-11.6,32.1-38.1,43.5-51.8
		c-5.9-8.6-37-52.4-47.2-67.2c-15.1-21.1-21.9-30.8-38.6-35.6v-2.7h94.5v2.7c-9.7,1.1-25.9,3.2-25.9,13.2c0,5.1,5.9,13.8,12.4,23.2
		c7,10.3,15.9,23.8,28.9,42.1c11.3-13,24-30.2,32.9-41.3c4.3-5.7,10.8-15.9,10.8-21.6c0-10.3-14.9-14-24.3-15.7v-2.7h70.5v2.7
		C1148.2,765.7,1135.2,777.9,1119.5,796.8L1119.5,796.8z"/>
	<g>
		<defs>
			<polygon id="SVGID_1_" points="322.1,1122.9 1591.9,1122.9 1591.9,167.1 322.1,167.1 322.1,1122.9 			"/>
		</defs>
		<clipPath id="SVGID_2_">
			<use xlink:href="#SVGID_1_"  style="overflow:visible;"/>
		</clipPath>
		<path class="st2" d="M1307.7,859.4c-7.3-2.4-14-3.2-23.5-3.2h-24.3c0,23.2,0,46.7,0.3,58.6c0.3,13.5,0.5,22.1,4.6,27.8
			c3,4.1,8.4,7,19.7,7c9.7,0,21.6-0.8,32.4-6.7c13.8-7.8,21.9-21.3,21.9-39.4C1338.7,882.9,1325.8,865.6,1307.7,859.4L1307.7,859.4z
			 M1306.3,768.4c-7.3-3.5-17-5.4-28.6-5.4c-7,0-13,0.8-15.9,1.9c-0.8,4.6-0.8,5.7-1.3,18.9c-0.8,25.1-0.5,65.1-0.5,68.3
			c11.1,0,18.6,0,23.2-0.3c30-1.9,45.1-20,45.1-44.5C1328.2,789.5,1319,774.4,1306.3,768.4L1306.3,768.4z M1342,948.3
			c-13.8,5.1-32.4,5.4-48,5.4h-97.5V951c8.9-1.4,18.4-4.6,23.2-10.3c3.5-4.3,4.6-17.6,4.9-29.2c0.3-10,0.5-36.2,0.5-55.9
			c0-21.6,0-31-0.3-52.6c-0.3-12.7-1.1-28.3-5.4-32.9c-5.4-5.7-10.3-7-20-8.1v-2.7h95.6c13.8,0,26.2,1.3,38.1,5.7
			c18.4,6.8,31.9,21.1,31.9,42.4c0,23.5-17.3,38.6-41.8,43.5v1.1c26.5,3,52.9,19.7,52.9,48.6C1376,926.1,1358.4,942.3,1342,948.3
			L1342,948.3z"/>
		<path class="st2" d="M1562.2,796.5c-8.9,13.5-32.9,50.8-41.6,63.7v54.3c0,10,0.3,21.9,3,25.6c5.4,7.8,15.7,9.4,23.5,10.8v2.7
			h-89.6V951c9.4-1.1,15.9-1.9,24-11.1c3.5-3.8,3.5-17.8,3.8-29.4c0.3-10,0.5-23.5,0.5-43.2c-1.9-3-32.9-53.7-43.2-69.7
			c-13.5-21.1-21.9-34.8-37-35.6v-2.7h88.6v2.7c-10.5,1.1-23.5,2.2-23.5,11.3c0,4.6,6.5,15.4,12.2,25.1c7.6,13,22.9,37.5,35.1,57
			c8.9-13.5,29.2-45.1,35.9-56.4c3.2-5.4,9.7-15.9,9.7-23.2c0-11.3-13-12.2-23-13.8v-2.7h62.4v2.7
			C1583,764.9,1575.5,776.5,1562.2,796.5L1562.2,796.5z"/>
		<path class="st2" d="M631.7,1076.4c-3.7-12.3-13.9-22.9-26.3-22.9c-17.4,0-26.8,17.5-26.8,34.9c0,18.7,10.4,33.4,27.1,33.4
			c12.8,0,23.4-11.4,25.9-22.4h1.2l-0.3,22h-1.2c-1.6-2.2-3.7-4.5-4.3-4.5c-0.5,0-8,6.7-23,6.7c-24.4,0-39.4-14.8-39.4-35.6
			c0-4.5,1-12.1,5.8-19.5c5.5-8.8,16-16.6,33.1-16.6c15.6,0,23.1,7,23.7,7c0.5,0,3-2.6,4.5-4.8h1.1v22.4L631.7,1076.4L631.7,1076.4z
			"/>
		<path class="st2" d="M685.5,1053.9c-15.9,0-22.7,17.7-22.7,34.4c0,17.5,7.6,33.7,23,33.7c15.2,0,22.6-18.1,22.6-34.3
			C708.4,1072,701,1053.9,685.5,1053.9L685.5,1053.9z M685.4,1123.6c-19.9,0-36.6-14.8-36.6-35.6c0-22.3,17.3-35.7,37.8-35.7
			c22.3,0,35.7,16.7,35.7,35.3C722.4,1108.2,705.5,1123.6,685.4,1123.6L685.4,1123.6z"/>
	</g>
	<path class="st1" d="M800,1122.9h-63.3v-1c3.2-0.5,7-1.6,8.7-3.7c1.3-1.6,1.7-6.3,1.8-10.5c0.1-3.6,0.2-12.9,0.2-20V1069
		c0-4.5,0-9.4-1.5-11.1c-1.8-2.1-5.2-3.3-8.6-3.7v-1h33.2v1c-3.5,0.5-10.2,1.6-10.4,8.5c-0.3,9-0.3,14.2-0.3,23.8
		c0,8.8,0,13.5,0.1,22.3c0.1,4.2,0.1,8.3,1.3,10.1c1,1.4,6.4,2.6,11.5,2.6c2.1,0,8.5-0.2,13-1.5c10.3-2.8,13.5-10.2,16.8-17.8l1,0.3
		L800,1122.9L800,1122.9z"/>
	<path class="st1" d="M875.9,1122.9h-63.3v-1c3.2-0.5,7-1.6,8.7-3.7c1.3-1.6,1.7-6.3,1.8-10.5c0.1-3.6,0.2-12.9,0.2-20V1069
		c0-4.5,0-9.4-1.5-11.1c-1.8-2.1-5.2-3.3-8.6-3.7v-1h33.2v1c-3.5,0.5-10.2,1.6-10.4,8.5c-0.3,9-0.3,14.2-0.3,23.8
		c0,8.8,0,13.5,0.1,22.3c0.1,4.2,0.1,8.3,1.3,10.1c1,1.4,6.4,2.6,11.5,2.6c2.1,0,8.5-0.2,13-1.5c10.3-2.8,13.5-10.2,16.8-17.8l1,0.3
		L875.9,1122.9L875.9,1122.9z"/>
	<g>
		<defs>
			<polygon id="SVGID_3_" points="322.1,1122.9 1591.9,1122.9 1591.9,167.1 322.1,167.1 322.1,1122.9 			"/>
		</defs>
		<clipPath id="SVGID_4_">
			<use xlink:href="#SVGID_3_"  style="overflow:visible;"/>
		</clipPath>
		<path class="st3" d="M950.1,1122.9h-60.9v-1c3.2-0.5,6.4-1.6,8.1-3.7c1.3-1.6,1.6-6.3,1.7-10.5c0.1-3.6,0.2-12.6,0.2-20v-18.9
			c0-4.6-0.1-10.3-1.6-11.9c-1.9-2-4.1-2.3-7.5-2.8v-1h55.1l6.6,16.5l-1,0.5c-5.2-6.5-10.7-11.4-15.2-13.6c-1.9-1-7.8-1.9-16.3-1.9
			c-2.7,0-5.8,0.2-7.1,0.5c-0.2,2-0.5,9.1-0.5,17.6c0,9.8,0.1,13.2,0.1,13.8c1.2,0,7.8,0,11.2-0.8c7.8-1.8,10.2-6.8,11.7-14h1.2
			v31.8h-1.2c-1.1-4.1-3.9-9.9-6.2-12c-2-1.8-4.9-3.1-8.8-3.3c-3.9-0.2-3.8-0.2-7.8-0.2c-0.2,1.7-0.2,5.6-0.2,9.4
			c0,3.5,0,9,0.1,11.5c0.1,4.2,0.3,8.2,1.5,10c1.2,1.7,6.1,2.5,11,2.5c2.1,0,5.7-0.2,8.9-0.6c8-1.1,14.2-6.2,20.6-17.2l1.1,0.3
			L950.1,1122.9L950.1,1122.9z"/>
		<path class="st3" d="M1033.9,1076.4c-3.7-12.3-13.9-22.9-26.3-22.9c-17.4,0-26.8,17.5-26.8,34.9c0,18.7,10.4,33.4,27.1,33.4
			c12.8,0,23.4-11.4,25.9-22.4h1.2l-0.3,22h-1.2c-1.6-2.2-3.7-4.5-4.3-4.5c-0.5,0-8,6.7-23,6.7c-24.4,0-39.4-14.8-39.4-35.6
			c0-4.5,1-12.1,5.8-19.5c5.5-8.8,16-16.6,33.1-16.6c15.6,0,23.1,7,23.7,7c0.5,0,3-2.6,4.6-4.8h1.1v22.4L1033.9,1076.4
			L1033.9,1076.4z"/>
	</g>
	<path class="st1" d="M1102.5,1122.9h-33.8v-1c3.4-0.4,6.7-0.9,9.6-4.2c1.3-1.4,1.3-6.2,1.4-10.4c0.1-3.6,0.2-12.3,0.2-19.7v-32
		c-5.5,0-6.3,0-11.2,0.1c-4.8,0.1-7.7,1.1-10.5,3.6c-2,1.9-6.3,7.9-8.4,12.5l-0.9-0.3l3.2-19.2c3,0.8,5.3,1.4,10.1,1.5
		c9.8,0.2,14.5,0.2,24.1,0.2c9.6,0,14.3-0.1,24.1-0.2c4.3-0.1,7-0.8,10-1.6l3.2,19.4l-0.9,0.3c-2.2-4.6-6.5-10.8-8.5-12.8
		c-2.7-2.5-5.6-3.2-10.5-3.3c-4.9-0.1-5.5-0.1-11.2-0.1c-0.1,6.6-0.1,21.5-0.1,53.1c0,3.6,0.1,7.6,1.1,9c1.9,2.8,6.3,3.6,9.1,4.1
		V1122.9L1102.5,1122.9z"/>
	<g>
		<defs>
			<polygon id="SVGID_5_" points="322.1,1122.9 1591.9,1122.9 1591.9,167.1 322.1,167.1 322.1,1122.9 			"/>
		</defs>
		<clipPath id="SVGID_6_">
			<use xlink:href="#SVGID_5_"  style="overflow:visible;"/>
		</clipPath>
		<path class="st4" d="M1134.9,1122.9v-1c3.2-0.5,6.3-1.6,8.2-3.8c1.3-1.5,1.3-6.2,1.4-10.4c0.1-3.6,0.2-13,0.2-20v-18.9
			c0-4.6,0-9.6-1.5-11.3c-1.8-2.1-4.6-3-8-3.4v-1h31.3v1c-2.7,0.4-6.5,1.1-8.1,4.2c-1.2,2.2-1,6-1.1,8.9c-0.1,6.6-0.1,12.2-0.1,20.1
			v21.9c0,3.6,0,7.7,1,9.1c1.6,2.1,5.7,3.4,8.4,3.6v1H1134.9L1134.9,1122.9z"/>
		<path class="st4" d="M1219.2,1053.9c-15.9,0-22.7,17.7-22.7,34.4c0,17.5,7.5,33.7,23,33.7c15.2,0,22.5-18.1,22.5-34.3
			C1242,1072,1234.7,1053.9,1219.2,1053.9L1219.2,1053.9z M1219.1,1123.6c-19.9,0-36.6-14.8-36.6-35.6c0-22.3,17.3-35.7,37.8-35.7
			c22.3,0,35.7,16.7,35.7,35.3C1256,1108.2,1239.1,1123.6,1219.1,1123.6L1219.1,1123.6z"/>
		<path class="st4" d="M1339.9,1060.2c-0.9,1.9-1.1,7.8-1.3,13.7c-0.2,5.5-0.5,13.4-0.5,22c0,7.4,0.1,18.5,0.1,26
			c0,0.8-0.4,1.6-1.5,1.6c-0.8,0-1.4-0.6-2-1.3c-21.8-25.3-34.5-40.4-51.7-60.2v40.1c0,6.4,0.2,12.3,1.5,14.8
			c1.5,2.9,4.5,4.3,9.8,4.9v1h-24.2v-1c3.1-0.4,6.8-1.5,8.5-4.3c1.7-2.7,2.1-8.1,2.3-15.5c0.2-5.5,0.4-13.4,0.4-22
			c0-7.4,0.1-9.1-0.1-16.5c-1-7.6-6.6-8.9-10.5-9.5v-1h21.2l44.5,51.8V1074c0-5.1,0-10.3-1-13c-1.3-3.6-4.5-5.9-10.7-6.8v-1h24.4v1
			C1344.4,1054.9,1341.4,1056.5,1339.9,1060.2L1339.9,1060.2z"/>
	</g>
</g>
</svg>
